<svg width="80" height="80" viewBox="0 0 80 80" fill="none" xmlns="http://www.w3.org/2000/svg">
<path fill-rule="evenodd" clip-rule="evenodd" d="M40.0003 73.3327C58.4096 73.3327 73.3336 58.4087 73.3336 39.9993C73.3336 21.5898 58.4096 6.66602 40.0003 6.66602C21.5908 6.66602 6.66699 21.5898 6.66699 39.9993C6.66699 58.4087 21.5908 73.3327 40.0003 73.3327ZM27.9919 51.844C28.8141 50.7347 30.3798 50.502 31.489 51.3243C33.917 53.1237 36.8473 54.166 40.0003 54.166C43.1533 54.166 46.0837 53.1237 48.5117 51.3243C49.621 50.502 51.1867 50.7347 52.0087 51.844C52.831 52.9533 52.5983 54.519 51.489 55.341C48.2477 57.7437 44.2837 59.166 40.0003 59.166C35.717 59.166 31.753 57.7437 28.5116 55.341C27.4024 54.519 27.1697 52.9533 27.9919 51.844ZM53.3337 34.9993C53.3337 37.7607 51.8413 39.9993 50.0003 39.9993C48.1593 39.9993 46.667 37.7607 46.667 34.9993C46.667 32.2379 48.1593 29.9993 50.0003 29.9993C51.8413 29.9993 53.3337 32.2379 53.3337 34.9993ZM30.0003 39.9993C31.8413 39.9993 33.3337 37.7607 33.3337 34.9993C33.3337 32.2379 31.8413 29.9993 30.0003 29.9993C28.1594 29.9993 26.667 32.2379 26.667 34.9993C26.667 37.7607 28.1594 39.9993 30.0003 39.9993Z" fill="url(#paint0_linear_20_9777)"/>
<defs>
<linearGradient id="paint0_linear_20_9777" x1="40.0003" y1="7.01595" x2="40.0001" y2="80.9373" gradientUnits="userSpaceOnUse">
<stop stop-color="white"/>
<stop offset="1" stop-color="white" stop-opacity="0"/>
</linearGradient>
</defs>
</svg>
