<svg width="20" height="20" viewBox="0 0 20 20" fill="none" xmlns="http://www.w3.org/2000/svg">
<path fill-rule="evenodd" clip-rule="evenodd" d="M11.667 18.3337H8.33366C5.19096 18.3337 3.61962 18.3337 2.6433 17.3573C1.66699 16.3811 1.66699 14.8097 1.66699 11.667V8.33366C1.66699 5.19096 1.66699 3.61962 2.6433 2.6433C3.61962 1.66699 5.19923 1.66699 8.35849 1.66699C8.86349 1.66699 9.26816 1.66699 9.60866 1.68088C9.59749 1.74748 9.59158 1.81543 9.59133 1.88413L9.58366 4.24613C9.58358 5.16038 9.58349 5.96836 9.67108 6.61963C9.76599 7.32556 9.98391 8.03138 10.56 8.60741C11.136 9.18349 11.8418 9.40141 12.5477 9.49633C13.1991 9.58391 14.007 9.58383 14.9212 9.58374H15.0003H18.2982C18.3337 10.029 18.3337 10.5754 18.3337 11.3027V11.667C18.3337 14.8097 18.3337 16.3811 17.3573 17.3573C16.3811 18.3337 14.8097 18.3337 11.667 18.3337Z" fill="#2D2D2D"/>
<path d="M16.1261 6.34689L12.8271 3.3778C11.8873 2.53191 11.4173 2.10896 10.8407 1.8877L10.833 4.16644C10.833 6.13062 10.833 7.11271 11.4432 7.7229C12.0534 8.33309 13.0355 8.33309 14.9997 8.33309H17.9831C17.6809 7.74624 17.14 7.25938 16.1261 6.34689Z" fill="#2D2D2D"/>
</svg>
