<svg width="80" height="80" viewBox="0 0 80 80" fill="none" xmlns="http://www.w3.org/2000/svg">
<path fill-rule="evenodd" clip-rule="evenodd" d="M64.9993 31.8677C65.1107 45.6743 53.605 58.444 39.7983 58.3327C25.9916 58.2213 15.1122 45.271 15.0008 31.4643C14.8894 17.6576 25.9916 6.55545 39.7983 6.66685C53.605 6.77825 64.8877 18.0611 64.9993 31.8677ZM41.687 17.4994C40.3063 17.4883 39.178 18.5985 39.1667 19.9792C39.1557 21.3598 40.2657 22.4881 41.6463 22.4993C45.7603 22.5324 49.1337 25.9058 49.1667 30.0195C49.178 31.4002 50.3063 32.5104 51.687 32.4993C53.0677 32.4881 54.1777 31.3598 54.1667 29.9792C54.1113 23.1356 48.5303 17.5546 41.687 17.4994Z" fill="url(#paint0_linear_20_9797)"/>
<path d="M47.2233 60.7141C48.3307 64.2551 46.036 67.8197 42.5003 68.5381V73.3321C42.5003 74.7127 41.381 75.8321 40.0003 75.8321C38.6197 75.8321 37.5003 74.7127 37.5003 73.3321V68.5381C33.9647 67.8197 31.6698 64.2551 32.7772 60.7141L32.8002 60.6427C35.0147 61.2884 37.3477 61.6457 39.7717 61.6654C42.3417 61.6861 44.831 61.3237 47.1983 60.6357C47.2073 60.6621 47.2153 60.6881 47.2233 60.7141Z" fill="url(#paint1_linear_20_9797)"/>
<defs>
<linearGradient id="paint0_linear_20_9797" x1="40.0001" y1="7.02907" x2="40" y2="106.562" gradientUnits="userSpaceOnUse">
<stop stop-color="white"/>
<stop offset="1" stop-color="white" stop-opacity="0"/>
</linearGradient>
<linearGradient id="paint1_linear_20_9797" x1="40.0001" y1="7.02907" x2="40" y2="106.562" gradientUnits="userSpaceOnUse">
<stop stop-color="white"/>
<stop offset="1" stop-color="white" stop-opacity="0"/>
</linearGradient>
</defs>
</svg>
