<svg width="24" height="24" viewBox="0 0 24 24" fill="none" xmlns="http://www.w3.org/2000/svg">
<path fill-rule="evenodd" clip-rule="evenodd" d="M20.6398 12.2046C20.6398 11.5664 20.5825 10.9528 20.4761 10.3637H11.9998V13.845H16.8434C16.6348 14.97 16.0007 15.9232 15.0475 16.5614V18.8196H17.9561C19.6579 17.2528 20.6398 14.9455 20.6398 12.2046Z" fill="#4285F4"/>
<path fill-rule="evenodd" clip-rule="evenodd" d="M11.9998 21.0001C14.4298 21.0001 16.467 20.1942 17.9561 18.8196L15.0475 16.5614C14.2416 17.1014 13.2107 17.4205 11.9998 17.4205C9.65567 17.4205 7.67158 15.8374 6.96385 13.7101H3.95703V16.0419C5.43794 18.9833 8.48158 21.0001 11.9998 21.0001Z" fill="#34A853"/>
<path fill-rule="evenodd" clip-rule="evenodd" d="M6.96409 13.7101C6.78409 13.1701 6.68182 12.5933 6.68182 12.0001C6.68182 11.4069 6.78409 10.8301 6.96409 10.2901V7.95825H3.95727C3.34773 9.17325 3 10.5478 3 12.0001C3 13.4523 3.34773 14.8269 3.95727 16.0419L6.96409 13.7101Z" fill="#FBBC05"/>
<path fill-rule="evenodd" clip-rule="evenodd" d="M11.9998 6.57955C13.3211 6.57955 14.5075 7.03364 15.4402 7.92545L18.0216 5.34409C16.4629 3.89182 14.4257 3 11.9998 3C8.48158 3 5.43794 5.01682 3.95703 7.95818L6.96385 10.29C7.67158 8.16273 9.65567 6.57955 11.9998 6.57955Z" fill="#EA4335"/>
</svg>
