<svg width="24" height="24" viewBox="0 0 24 24" fill="none" xmlns="http://www.w3.org/2000/svg">
<path fill-rule="evenodd" clip-rule="evenodd" d="M21.999 12.001C21.999 17.5238 17.5218 22.001 11.999 22.001C6.47617 22.001 1.99902 17.5238 1.99902 12.001C1.99902 6.47813 6.47617 2.00098 11.999 2.00098C17.5218 2.00098 21.999 6.47813 21.999 12.001ZM11.999 17.751C12.4132 17.751 12.749 17.4152 12.749 17.001V11.001C12.749 10.5868 12.4132 10.251 11.999 10.251C11.5848 10.251 11.249 10.5868 11.249 11.001V17.001C11.249 17.4152 11.5848 17.751 11.999 17.751ZM11.999 7.00098C12.5513 7.00098 12.999 7.4487 12.999 8.00098C12.999 8.55326 12.5513 9.00098 11.999 9.00098C11.4467 9.00098 10.999 8.55326 10.999 8.00098C10.999 7.4487 11.4467 7.00098 11.999 7.00098Z" fill="#999999"/>
</svg>
