<svg width="80" height="80" viewBox="0 0 80 80" fill="none" xmlns="http://www.w3.org/2000/svg">
<path d="M47.3907 11.6655C42.6541 9.44483 37.3457 9.44483 32.6091 11.6655L10.3054 22.122C6.71875 23.8035 5.78365 28.5451 7.50008 31.8222V48.3333C7.50008 49.714 8.61938 50.8333 10.0001 50.8333C11.3808 50.8333 12.5001 49.714 12.5001 48.3333V35.5733L32.6094 45.001C37.3461 47.2217 42.6544 47.2217 47.3911 45.001L69.6947 34.5447C74.5464 32.2702 74.5464 24.3966 69.6947 22.1221L47.3907 11.6655Z" fill="url(#paint0_linear_75_824)"/>
<path d="M16.6667 43.0488V55.4178C16.6667 58.7778 18.3451 61.9238 21.2845 63.5518C26.1791 66.2622 34.0134 69.9998 40.0001 69.9998C45.9867 69.9998 53.8211 66.2622 58.7157 63.5518C61.6551 61.9238 63.3334 58.7778 63.3334 55.4178V43.0492L49.5134 49.5282C43.4321 52.3792 36.5684 52.3792 30.487 49.5282L16.6667 43.0488Z" fill="url(#paint1_linear_75_824)"/>
<defs>
<linearGradient id="paint0_linear_75_824" x1="40.0001" y1="10.2143" x2="40" y2="61.5804" gradientUnits="userSpaceOnUse">
<stop stop-color="white"/>
<stop offset="1" stop-color="white" stop-opacity="0"/>
</linearGradient>
<linearGradient id="paint1_linear_75_824" x1="40.0001" y1="43.1903" x2="40" y2="77.0931" gradientUnits="userSpaceOnUse">
<stop stop-color="white"/>
<stop offset="1" stop-color="white" stop-opacity="0"/>
</linearGradient>
</defs>
</svg>
