<svg width="80" height="80" viewBox="0 0 80 80" fill="none" xmlns="http://www.w3.org/2000/svg">
<path d="M42.7747 72.6713C53.1943 70.5827 66.6667 63.087 66.6667 43.7043C66.6667 26.0657 53.7557 14.3201 44.4717 8.92316C42.4117 7.72556 40 9.30052 40 11.6834V17.7783C40 22.5845 37.9793 31.3574 32.3644 35.0063C29.4977 36.8693 26.4017 34.081 26.0533 30.6799L25.7672 27.8871C25.4347 24.6404 22.128 22.6695 19.5332 24.649C14.8716 28.2051 10 34.4323 10 43.7043C10 67.408 27.6296 73.334 36.4443 73.334C36.957 73.334 37.496 73.3186 38.057 73.2863C33.7043 72.9143 26.6667 70.2137 26.6667 61.481C26.6667 54.65 31.6502 50.0287 35.4367 47.7823C36.455 47.178 37.647 47.9627 37.647 49.1467V51.1107C37.647 52.6137 38.2283 54.9633 39.612 56.5717C41.178 58.3917 43.4763 56.485 43.6617 54.0913C43.7203 53.3363 44.4797 52.855 45.1337 53.2373C47.2713 54.4867 50 57.1553 50 61.481C50 68.3077 46.2367 71.448 42.7747 72.6713Z" fill="url(#paint0_linear_20_9807)"/>
<defs>
<linearGradient id="paint0_linear_20_9807" x1="38.3333" y1="8.85294" x2="36.4581" y2="137.81" gradientUnits="userSpaceOnUse">
<stop stop-color="white"/>
<stop offset="1" stop-color="white" stop-opacity="0"/>
</linearGradient>
</defs>
</svg>
