<svg width="80" height="80" viewBox="0 0 80 80" fill="none" xmlns="http://www.w3.org/2000/svg">
<path fill-rule="evenodd" clip-rule="evenodd" d="M30.8337 13.3327C30.8337 8.27008 34.9377 4.16602 40.0003 4.16602C45.063 4.16602 49.167 8.27008 49.167 13.3327C49.167 18.3953 45.063 22.4993 40.0003 22.4993C34.9377 22.4993 30.8337 18.3953 30.8337 13.3327Z" fill="url(#paint0_linear_20_9816)"/>
<path d="M27.4106 38.5797L20.1596 36.1627C18.0739 35.4674 16.667 33.5154 16.667 31.3169C16.667 28.065 19.6654 25.641 22.8452 26.3224L29.1704 27.6778C29.5221 27.7532 29.698 27.7908 29.8724 27.8269C36.5537 29.2089 43.447 29.2089 50.1283 27.8269C50.3027 27.7908 50.4787 27.7532 50.8303 27.6778L57.1553 26.3224C60.3353 25.641 63.3337 28.065 63.3337 31.3169C63.3337 33.5154 61.9267 35.4674 59.841 36.1627L52.59 38.5797C51.7137 38.8717 51.2757 39.0177 50.946 39.2214C49.824 39.9137 49.2157 41.2027 49.3943 42.5094C49.447 42.893 49.6127 43.324 49.9443 44.186L54.1003 54.9917C55.3373 58.208 52.963 61.665 49.5167 61.665C47.7547 61.665 46.1273 60.721 45.253 59.1907L40.0003 49.9984L34.7477 59.1907C33.8733 60.721 32.2461 61.665 30.4839 61.665C27.0376 61.665 24.6633 58.208 25.9004 54.9917L30.0564 44.186C30.388 43.324 30.5538 42.893 30.6062 42.5094C30.7849 41.2027 30.1766 39.9137 29.0545 39.2214C28.725 39.0177 28.2869 38.8717 27.4106 38.5797Z" fill="url(#paint1_linear_20_9816)"/>
<path d="M40.0003 73.332C58.4096 73.332 73.3336 66.6163 73.3336 58.332C73.3336 52.5927 66.17 47.606 55.647 45.084L58.767 53.196C61.2636 59.6877 56.472 66.6646 49.5167 66.6646C45.9603 66.6646 42.6763 64.759 40.912 61.671L40.0003 60.0757L39.0887 61.671C37.3243 64.759 34.0403 66.6646 30.4839 66.6646C23.5287 66.6646 18.737 59.6877 21.2337 53.196L24.3538 45.084C13.8306 47.606 6.66699 52.5927 6.66699 58.332C6.66699 66.6163 21.5908 73.332 40.0003 73.332Z" fill="url(#paint2_linear_20_9816)"/>
<defs>
<linearGradient id="paint0_linear_20_9816" x1="40.0003" y1="4.52907" x2="40.0003" y2="149.999" gradientUnits="userSpaceOnUse">
<stop stop-color="white"/>
<stop offset="1" stop-color="white" stop-opacity="0"/>
</linearGradient>
<linearGradient id="paint1_linear_20_9816" x1="40.0003" y1="4.52907" x2="40.0003" y2="149.999" gradientUnits="userSpaceOnUse">
<stop stop-color="white"/>
<stop offset="1" stop-color="white" stop-opacity="0"/>
</linearGradient>
<linearGradient id="paint2_linear_20_9816" x1="40.0003" y1="4.52907" x2="40.0003" y2="149.999" gradientUnits="userSpaceOnUse">
<stop stop-color="white"/>
<stop offset="1" stop-color="white" stop-opacity="0"/>
</linearGradient>
</defs>
</svg>
