<svg width="80" height="80" viewBox="0 0 80 80" fill="none" xmlns="http://www.w3.org/2000/svg">
<path d="M18.8984 33.0482L29.1055 19.2381C35.7033 10.3112 39.0023 5.84783 42.0803 6.79103C45.1579 7.73427 45.1579 13.2086 45.1579 24.1574V25.1897C45.1579 29.1387 45.1579 31.1132 46.4199 32.3517L46.4866 32.4159C47.7756 33.6283 49.8306 33.6283 53.9406 33.6283C61.3369 33.6283 65.0353 33.6283 66.2849 35.8713C66.3056 35.9083 66.3256 35.946 66.3453 35.9837C67.5253 38.2617 65.3839 41.1587 61.1013 46.9527L50.8943 60.7627C44.2963 69.6893 40.9973 74.153 37.9193 73.2097C34.8416 72.2663 34.8416 66.792 34.8416 55.843L34.8419 54.8113C34.8419 50.862 34.8419 48.8877 33.5799 47.649L33.5133 47.585C32.2243 46.3727 30.1692 46.3727 26.0591 46.3727C18.6629 46.3727 14.9648 46.3727 13.7149 44.1293C13.6942 44.0923 13.6741 44.055 13.6546 44.017C12.4747 41.7393 14.6159 38.8423 18.8984 33.0482Z" fill="url(#paint0_linear_20_9768)"/>
<defs>
<linearGradient id="paint0_linear_20_9768" x1="39.9999" y1="7.01693" x2="39.9999" y2="73.3337" gradientUnits="userSpaceOnUse">
<stop stop-color="white"/>
<stop offset="1" stop-color="white" stop-opacity="0"/>
</linearGradient>
</defs>
</svg>
