<svg width="80" height="80" viewBox="0 0 80 80" fill="none" xmlns="http://www.w3.org/2000/svg">
<g clip-path="url(#clip0_75_838)">
<path d="M39.9009 22.0383C38.7447 22.5982 37.599 23.374 36.5364 24.4379C31.2097 29.7657 26.3675 34.6079 26.3675 34.6079L26.3695 34.611C26.3406 34.64 26.3115 34.6638 26.2825 34.6938C24.9037 36.0736 24.849 38.2733 26.1223 39.7166C26.1728 39.7746 26.2267 39.8316 26.2825 39.8863C27.7139 41.3197 30.0381 41.3232 31.475 39.8863L37.0683 34.293C38.0333 34.6466 38.982 34.8529 39.8923 34.956C41.1325 35.0935 42.2973 35.0419 43.3333 34.8958C45.8586 34.538 45.5942 34.6422 47.0589 34.1608C48.5203 33.6815 50.1623 32.6993 50.1623 32.6993L51.1564 33.6922C51.2659 33.7986 53.8 36.3368 55.0926 37.6274C55.3215 37.8572 55.5159 38.0465 55.6461 38.1819C55.7955 38.3377 55.962 38.4505 56.0651 38.601L62.5148 45.0508C64.3739 42.9649 66.4973 39.8583 66.2351 36.2918L50.1192 20.178C50.1192 20.178 44.5409 19.7794 39.9009 22.0383Z" fill="url(#paint0_linear_75_838)"/>
<path d="M40.7992 61.619C39.372 60.1898 37.0553 60.1898 35.6272 61.619L34.5656 62.6806C35.9904 61.2537 35.9893 58.9422 34.5623 57.514C33.1342 56.0881 30.8206 56.0881 29.3925 57.5151C30.8206 56.0881 30.8206 53.7745 29.3925 52.3453C27.9654 50.9159 25.6507 50.9183 24.2226 52.3453C25.6507 50.9183 25.6507 48.6036 24.2226 47.1742C22.7954 45.7473 20.4809 45.7473 19.0526 47.1764L15.8557 50.3722C14.4276 51.8014 14.4276 54.1139 15.8557 55.5431C17.2828 56.9703 19.5965 56.9703 21.0245 55.5431C19.5964 56.9703 19.5964 59.2848 21.0245 60.7129C22.4537 62.14 24.7673 62.14 26.1954 60.7129C24.7673 62.14 24.7673 64.4537 26.1954 65.8829C27.6236 67.31 29.9372 67.31 31.3654 65.8829L32.4282 64.819C31.0034 66.2483 31.0043 68.5597 32.4314 69.9879C33.8595 71.4148 36.1731 71.4148 37.6014 69.9879L40.7993 66.7898C42.2262 65.3597 42.2262 63.0461 40.7992 61.619Z" fill="url(#paint1_linear_75_838)"/>
<path d="M79.3729 27.8562L60.5536 9.03461C59.7175 8.2007 58.3657 8.2007 57.5318 9.03461L51.4957 15.0705C50.6618 15.9045 50.6618 17.2563 51.4957 18.0913L70.3173 36.9118C71.1501 37.7477 72.5042 37.7477 73.337 36.9118L79.3729 30.8746C80.209 30.043 80.209 28.6912 79.3729 27.8562ZM74.0086 32.0299C73.1101 32.9262 71.6573 32.9262 70.7621 32.0299C69.8661 31.1326 69.8661 29.6798 70.7621 28.7835C71.6573 27.8873 73.1101 27.8873 74.0086 28.7835C74.9048 29.6798 74.9037 31.1326 74.0086 32.0299Z" fill="url(#paint2_linear_75_838)"/>
<path d="M28.5026 15.6037L22.4676 9.56773C21.6339 8.73383 20.2809 8.73383 19.447 9.56773L0.62543 28.3891C-0.208477 29.2209 -0.208477 30.5749 0.62543 31.4077L6.66152 37.4459C7.49434 38.2788 8.84934 38.2788 9.68106 37.4459L28.5026 18.6243C29.3376 17.7904 29.3376 16.4385 28.5026 15.6037ZM9.23715 32.5629C8.3409 33.458 6.88715 33.458 5.99074 32.5629C5.09465 31.6657 5.09465 30.2127 5.99074 29.3165C6.88699 28.4204 8.3409 28.4204 9.23715 29.3165C10.1334 30.2127 10.1334 31.6655 9.23715 32.5629Z" fill="url(#paint3_linear_75_838)"/>
<path d="M49.6173 36.3777L48.8543 36.7162L48.0237 37.016L47.9637 37.0343C47.8175 37.0805 46.4506 37.4985 43.7556 37.8799C42.3306 38.0788 40.9187 38.1035 39.5518 37.9477C39.0114 37.8876 38.474 37.7993 37.9431 37.6834L33.6061 42.0184C31.0001 44.6243 26.7567 44.6243 24.1507 42.0184C24.0593 41.926 23.9712 41.8324 23.8896 41.7401L23.8617 41.7088C22.2165 39.8434 21.7986 37.2901 22.5723 35.0743L24.24 32.4791L24.2368 32.476L34.4057 22.3082C34.8193 21.8955 35.2536 21.5109 35.7048 21.1476C32.5359 20.5254 29.8773 20.7091 29.8773 20.7091L13.7645 36.8248C13.5475 39.7916 15.585 43.0434 17.0345 44.9423C19.6426 42.4481 23.7906 42.4804 26.3534 45.0445C27.3076 45.9976 27.9084 47.1721 28.1618 48.4035C29.3954 48.6593 30.569 49.259 31.5232 50.2132C32.4775 51.1685 33.0782 52.343 33.3318 53.5755C34.5643 53.8291 35.74 54.4287 36.6932 55.383C37.3304 56.0202 37.8107 56.7554 38.1342 57.542C39.8686 57.5205 41.6095 58.1695 42.9292 59.488C45.5307 62.0874 45.5296 66.3213 42.9292 68.9198L41.8653 69.9857L42.3982 70.5188C43.8276 71.948 46.1411 71.948 47.5693 70.5188C48.9975 69.0916 48.9975 66.7771 47.5693 65.3488L48.6331 66.416C50.0623 67.843 52.3748 67.843 53.8029 66.416C55.231 64.9868 55.2321 62.6732 53.8029 61.244C55.2321 62.6732 57.5446 62.6732 58.9728 61.244C60.4 59.818 60.4031 57.5034 58.9728 56.074C60.4031 57.5034 62.7156 57.5034 64.1428 56.074C65.572 54.6471 65.572 52.3323 64.1428 50.9052L49.6173 36.3777Z" fill="url(#paint4_linear_75_838)"/>
</g>
<defs>
<linearGradient id="paint0_linear_75_838" x1="40" y1="8.74082" x2="39.9999" y2="78.7978" gradientUnits="userSpaceOnUse">
<stop stop-color="white"/>
<stop offset="1" stop-color="white" stop-opacity="0"/>
</linearGradient>
<linearGradient id="paint1_linear_75_838" x1="40" y1="8.74082" x2="39.9999" y2="78.7978" gradientUnits="userSpaceOnUse">
<stop stop-color="white"/>
<stop offset="1" stop-color="white" stop-opacity="0"/>
</linearGradient>
<linearGradient id="paint2_linear_75_838" x1="40" y1="8.74082" x2="39.9999" y2="78.7978" gradientUnits="userSpaceOnUse">
<stop stop-color="white"/>
<stop offset="1" stop-color="white" stop-opacity="0"/>
</linearGradient>
<linearGradient id="paint3_linear_75_838" x1="40" y1="8.74082" x2="39.9999" y2="78.7978" gradientUnits="userSpaceOnUse">
<stop stop-color="white"/>
<stop offset="1" stop-color="white" stop-opacity="0"/>
</linearGradient>
<linearGradient id="paint4_linear_75_838" x1="40" y1="8.74082" x2="39.9999" y2="78.7978" gradientUnits="userSpaceOnUse">
<stop stop-color="white"/>
<stop offset="1" stop-color="white" stop-opacity="0"/>
</linearGradient>
<clipPath id="clip0_75_838">
<rect width="80" height="80" fill="white"/>
</clipPath>
</defs>
</svg>
