<svg width="1113" height="320" viewBox="0 0 1113 320" fill="none" xmlns="http://www.w3.org/2000/svg">
<path d="M544.64 259.076C566.195 248.409 586.671 225.251 594.976 198.337C603.282 171.423 599.417 140.753 587.621 119.795C576.955 98.2397 553.796 77.7642 526.882 69.4587C499.968 61.1534 469.299 65.018 448.34 76.8142C426.785 87.4804 406.309 110.639 398.004 137.553C389.699 164.467 393.563 195.136 405.36 216.095C416.026 237.65 439.184 258.126 466.098 266.431C493.012 274.737 523.682 270.872 544.64 259.076Z" stroke="url(#paint0_linear_43_60)" stroke-width="8"/>
<path d="M480.372 222.237C482.602 224.742 489.39 229.2 495.921 230.28C506.006 231.947 515.48 225.56 521.356 218.559" stroke="#E8B932" stroke-width="5" stroke-linecap="round"/>
<path d="M256.304 138.7C257.257 135.604 258.145 133.273 259.058 133.199C259.971 133.126 260.909 135.31 260.806 138.787C260.703 142.265 259.559 147.035 260.442 147.883C261.326 148.731 264.237 145.657 266.497 143.595C268.756 141.533 270.364 140.483 272.778 138.983C275.192 137.482 278.412 135.533 281.741 134.239C285.071 132.946 288.51 132.31 291.885 132.104C295.259 131.897 298.57 132.121 301.206 132.857C303.842 133.593 305.803 134.842 308.07 136.796C310.337 138.75 312.909 141.409 314.716 145.695C316.522 149.981 317.564 155.894 317.604 161.674C317.645 167.454 316.685 173.101 315.05 178.255C313.416 183.409 311.108 188.069 308.123 192.058C305.138 196.046 301.476 199.361 297.569 201.613C293.662 203.865 289.511 205.052 285.574 205.851C281.638 206.651 277.917 207.063 274.261 206.47C270.606 205.878 267.015 204.281 263.806 201.991C260.597 199.701 257.768 196.718 256.259 192.962C254.75 189.207 254.561 184.679 254.116 189.114C253.671 193.55 252.971 206.948 253.02 219.099C253.07 231.25 253.869 242.154 254.258 250.553C254.646 258.953 254.623 264.848 253.89 268.492C253.158 272.137 251.716 273.532 249.535 274.321C247.355 275.109 244.437 275.29 241.108 274.95C237.779 274.611 234.039 273.75 231.82 272.544C229.601 271.338 228.903 269.786 228.845 267.25C228.786 264.713 229.367 261.193 231.533 250.415L240.565 207.048L248.177 172.408L253.045 151.058L256.304 138.7ZM270.403 201.552C273.26 203.329 276.709 203.469 280.04 202.922C283.371 202.375 286.585 201.142 289.59 198.429C292.594 195.716 295.389 191.524 297.418 187.177C299.447 182.83 300.71 178.327 301.572 173.83C302.433 169.333 302.893 164.84 302.998 160.547C303.103 156.253 302.854 152.158 301.807 148.955C300.76 145.752 298.915 143.441 296.961 141.904C295.008 140.368 292.946 139.606 291.194 139.321C289.441 139.036 287.999 139.228 285.946 139.943C283.892 140.659 281.228 141.898 278.403 144.248C275.577 146.597 272.591 150.056 270.32 153.973C268.05 157.89 266.495 162.263 265.294 166.753C264.093 171.242 263.246 175.848 262.925 180.232C262.603 184.617 262.808 188.781 264.043 192.571C265.279 196.36 267.546 199.775 270.403 201.552Z" fill="url(#paint1_linear_43_60)"/>
<path d="M337.746 138.7C338.699 135.604 339.586 133.273 340.499 133.199C341.412 133.126 342.351 135.31 342.248 138.787C342.145 142.265 341.001 147.035 341.884 147.883C342.767 148.731 345.679 145.657 347.938 143.595C350.198 141.533 351.805 140.483 354.219 138.983C356.633 137.482 359.853 135.533 363.183 134.239C366.512 132.946 369.951 132.31 373.326 132.104C376.701 131.897 380.011 132.121 382.647 132.857C385.283 133.593 387.245 134.842 389.511 136.796C391.778 138.75 394.35 141.409 396.157 145.695C397.964 149.981 399.005 155.894 399.046 161.674C399.086 167.454 398.126 173.101 396.492 178.255C394.858 183.409 392.55 188.069 389.565 192.058C386.579 196.046 382.917 199.361 379.011 201.613C375.104 203.865 370.952 205.052 367.016 205.851C363.08 206.651 359.358 207.063 355.703 206.47C352.047 205.878 348.457 204.281 345.247 201.991C342.038 199.701 339.209 196.718 337.701 192.962C336.192 189.207 336.002 184.679 335.557 189.114C335.113 193.55 334.412 206.948 334.462 219.099C334.511 231.25 335.311 242.154 335.699 250.553C336.087 258.953 336.064 264.848 335.332 268.492C334.599 272.137 333.157 273.532 330.977 274.321C328.796 275.109 325.878 275.29 322.549 274.95C319.22 274.611 315.48 273.75 313.262 272.544C311.043 271.338 310.345 269.786 310.286 267.25C310.228 264.713 310.809 261.193 312.975 250.415L322.007 207.048L329.619 172.408L334.486 151.058L337.746 138.7ZM351.845 201.552C354.702 203.329 358.15 203.469 361.481 202.922C364.812 202.375 368.027 201.142 371.031 198.429C374.036 195.716 376.831 191.524 378.86 187.177C380.889 182.83 382.152 178.327 383.013 173.83C383.875 169.333 384.334 164.84 384.44 160.547C384.545 156.253 384.295 152.158 383.248 148.955C382.201 145.752 380.356 143.441 378.403 141.904C376.449 140.368 374.387 139.606 372.635 139.321C370.883 139.036 369.441 139.228 367.387 139.943C365.334 140.659 362.669 141.898 359.844 144.248C357.019 146.597 354.032 150.056 351.762 153.973C349.491 157.89 347.936 162.263 346.736 166.753C345.535 171.242 344.687 175.848 344.366 180.232C344.045 184.617 344.249 188.781 345.485 192.571C346.72 196.36 348.987 199.775 351.845 201.552Z" fill="url(#paint2_linear_43_60)"/>
<path d="M415.559 144.281C413.985 141.097 409.296 139.002 411.613 137.56C413.929 136.117 423.252 135.328 428.547 135.599C433.842 135.871 435.11 137.203 435.356 139.366C435.603 141.528 434.828 144.52 433.872 147.106C432.916 149.692 431.779 151.872 430.177 154.778C428.575 157.684 426.509 161.316 424.153 166.554C421.797 171.792 419.151 178.636 418.267 184.234C417.384 189.832 418.262 194.184 419.544 197.134C420.826 200.084 422.51 201.631 425.129 202.544C427.747 203.458 431.3 203.737 434.759 203.015C438.218 202.293 441.582 200.569 444.765 198.323C447.948 196.077 450.948 193.309 453.588 190.288C456.228 187.267 458.508 183.993 460.554 180.012C462.601 176.032 464.416 171.344 465.649 167.097C466.883 162.85 467.535 159.043 468.107 155.254C468.678 151.466 469.168 147.696 469.349 144.023C469.531 140.35 469.403 136.775 470.976 134.633C472.549 132.492 475.822 131.786 479.113 131.385C482.405 130.985 485.716 130.889 486.415 134.012C487.114 137.134 485.202 143.475 483.644 149.285L477.024 176.665C473.165 192.953 466.65 220.247 462.203 236.584C457.756 252.921 455.378 258.299 453.048 262.282C450.719 266.264 448.438 268.85 445.844 270.704C443.25 272.558 440.344 273.679 437.242 274.215C434.14 274.751 430.841 274.701 427.742 274.097C424.643 273.493 421.744 272.335 418.9 270.843C416.056 269.351 413.267 267.525 410.801 265.233C408.336 262.941 406.193 260.183 404.615 257.629C403.038 255.074 402.026 252.724 401.233 250.73C400.44 248.736 399.866 247.098 400.789 246.058C401.712 245.018 404.13 244.576 408.282 244.387C412.434 244.197 418.319 244.259 419.902 246.165C421.484 248.072 418.765 251.822 418.687 255.4C418.609 258.977 421.173 262.381 423.935 264.491C426.697 266.6 429.657 267.414 432.153 267.046C434.648 266.677 436.679 265.126 439.059 261.742C441.439 258.359 444.168 253.143 447.158 245.931C450.148 238.718 453.399 229.51 456.349 220.231L464.027 194.93C466.107 188.259 467.618 184.268 467.376 183.966C467.134 183.664 465.138 187.05 462.458 190.378C459.779 193.705 456.417 196.973 453.293 199.461C450.169 201.948 447.284 203.656 444.073 204.903C440.862 206.15 437.325 206.936 434.093 207.259C430.861 207.582 427.933 207.44 425.049 206.662C422.166 205.883 419.327 204.468 417.18 202.515C415.033 200.562 413.578 198.072 412.374 195.047C411.17 192.022 410.217 188.462 409.956 183.847C409.695 179.233 410.126 173.564 410.924 168.749C411.722 163.934 412.887 159.972 414.24 155.854C415.593 151.737 417.134 147.465 415.559 144.281Z" fill="url(#paint3_linear_43_60)"/>
<path d="M228.279 196.845C227.713 201.25 227.524 203.068 226.325 204.287C225.126 205.507 222.916 206.129 220.629 206.359C218.342 206.589 215.978 206.427 215.08 205.234C214.182 204.041 214.751 201.817 215.387 199.552L217.411 192.884C218.095 190.785 218.757 188.89 218.352 188.894C217.948 188.898 216.478 190.8 214.927 192.547C213.375 194.294 211.743 195.885 209.739 197.45C207.734 199.016 205.357 200.554 202.755 201.972C200.152 203.39 197.323 204.687 194.216 205.491C191.11 206.295 187.725 206.605 184.17 206.373C180.616 206.141 176.892 205.367 174.005 203.929C171.118 202.491 169.067 200.389 167.662 197.914C166.256 195.44 165.496 192.594 165.131 189.893C164.765 187.191 164.795 184.635 165.087 181.401C165.379 178.167 165.934 174.256 166.987 170.438C168.041 166.62 169.592 162.894 171.426 159.365C173.26 155.836 175.375 152.504 178.314 149.162C181.253 145.82 185.015 142.468 189.088 139.934C193.161 137.4 197.545 135.683 201.888 134.771C206.231 133.859 210.534 133.752 214.3 134.234C218.067 134.715 221.298 135.786 224.097 137.477C226.896 139.167 229.264 141.477 230.747 145.28C232.231 149.083 232.83 154.379 232.68 160.156C232.531 165.934 231.632 172.194 230.711 178.821L228.279 196.845ZM180.57 155.077C177.813 158.954 175.522 163.257 173.849 167.337C172.175 171.417 171.12 175.274 170.674 178.908C170.229 182.542 170.393 185.953 171.354 188.674C172.315 191.396 174.073 193.427 175.92 194.896C177.767 196.364 179.704 197.27 182.255 197.678C184.807 198.087 187.973 197.998 190.691 197.252C193.409 196.507 195.679 195.104 198.173 193.15C200.667 191.196 203.385 188.69 205.879 185.584C208.372 182.478 210.64 178.772 212.212 175.399C213.785 172.027 214.661 168.989 215.187 166.227C215.712 163.465 215.887 160.98 215.971 158.479C216.054 155.978 216.045 153.46 215.621 151.135C215.196 148.809 214.356 146.677 213.307 145.123C212.259 143.568 211.004 142.591 209.144 141.816C207.284 141.041 204.821 140.467 201.491 140.913C198.161 141.36 193.965 142.827 190.256 145.286C186.547 147.746 183.326 151.199 180.57 155.077Z" fill="url(#paint4_linear_43_60)"/>
<path d="M982.591 179.424C982.144 173.055 978.692 171.303 974.922 170.638C971.152 169.974 967.066 170.397 962.092 170.76C957.117 171.122 951.254 171.423 947.28 172.654C943.305 173.884 941.218 176.044 938.708 182.727C935.727 190.614 937.895 194.326 938.774 196.033L939.353 197.389C940.593 201.847 933.434 204.5 929.144 205.632C924.52 206.853 923.23 206.307 922.318 205.187C921.407 204.067 920.875 202.373 921.016 199.982C921.157 197.59 921.972 194.503 923.786 189.492L931.429 169.979L941.599 144.668C945.531 135.123 950.177 124.233 954.164 115.971C962.138 99.4474 967.481 93.4339 971.783 91.9465C976.085 90.4591 979.347 93.4978 981.428 98.2122C982.469 100.57 983.215 103.346 984.282 110.109L988.16 137.437L992.673 166.335C994.03 174.784 995.515 184.147 999.561 188.856L1000.73 190.033L1001.51 190.599C1003.55 192.356 998.561 199.116 995.269 202.641C991.977 206.166 990.379 206.456 988.878 206.311C987.378 206.166 985.974 205.585 985.126 204.035C984.279 202.486 983.989 199.968 983.674 195.469L982.591 179.424ZM955.492 138.992L947.232 158.08C945.411 162.516 944.935 164.018 945.267 164.823C945.599 165.629 946.738 165.739 948.961 165.702C951.185 165.666 954.492 165.482 958.718 165.023C962.944 164.563 968.089 163.828 971.837 162.45C975.585 161.072 977.937 159.051 978.985 156.074C980.032 153.098 979.775 149.166 979.095 142.955C978.415 136.745 977.312 128.256 976.011 122.707C974.709 117.159 973.208 114.55 971.425 114.145C969.641 113.739 967.575 115.537 964.856 120.03C962.136 124.524 958.762 131.712 955.492 138.992Z" fill="url(#paint5_linear_43_60)"/>
<path d="M884.913 173.143C885.618 174.824 885.997 178.457 885.347 182.09C884.696 185.722 883.015 189.355 880.521 192.744C878.027 196.133 874.719 199.278 871.303 201.419C867.887 203.561 864.363 204.7 860.188 205.405C856.013 206.11 851.187 206.381 846.036 205.838C840.885 205.296 835.409 203.941 830.637 201.419C825.866 198.898 821.799 195.211 818.438 191.144C815.076 187.078 812.419 182.632 810.982 177.643C809.545 172.655 809.328 167.125 810.06 161.648C810.792 156.172 812.473 150.75 815.347 146.304C818.221 141.858 822.287 138.387 826.788 135.703C831.288 133.02 836.222 131.122 842.241 130.146C848.259 129.17 855.362 129.116 861.055 130.227C866.749 131.339 871.032 133.616 874.584 136.517C878.135 139.418 880.955 142.942 882.392 146.466C883.828 149.991 883.883 153.515 883.069 156.524C882.256 159.534 880.575 162.028 877.512 164.251C874.448 166.474 870.002 168.426 865.773 169.754C861.543 171.083 857.531 171.788 853.736 172.547C849.94 173.306 846.362 174.119 843.298 175.068C840.235 176.017 837.686 177.101 835.734 178.213C833.782 179.324 832.427 180.463 831.586 182.035C830.746 183.608 830.421 185.614 831.071 187.891C831.722 190.168 833.348 192.717 835.626 194.804C837.903 196.892 840.831 198.519 843.84 199.603C846.85 200.687 849.94 201.23 852.597 201.013C855.254 200.796 857.477 199.82 859.104 198.248C860.73 196.675 861.76 194.506 862.492 192.229C863.224 189.952 863.658 187.566 864.092 185.099C864.526 182.632 864.959 180.083 866.694 178.131C868.43 176.179 871.466 174.824 874.258 173.902C877.051 172.98 879.599 172.492 881.388 172.113C883.178 171.733 884.208 171.462 884.913 173.143ZM830.162 167.166C829.448 169.878 828.833 172.155 829.117 172.953C829.401 173.75 830.582 173.068 833.013 172.115L843.119 168.558C847.118 167.178 851.436 165.641 855.061 163.936C858.687 162.231 861.618 160.358 863.4 158.139C865.182 155.92 865.814 153.356 865.84 150.931C865.865 148.505 865.284 146.218 864.41 144.329C863.536 142.44 862.368 140.949 860.866 139.883C859.363 138.818 857.526 138.178 855.093 138.016C852.66 137.853 849.63 138.166 846.509 139.676C843.388 141.186 840.176 143.892 837.827 147.172C835.478 150.453 833.993 154.308 832.843 157.808L830.162 167.166Z" fill="url(#paint6_linear_43_60)"/>
<path d="M562.103 190.322C557.417 198.064 556.111 199.866 554.655 201.373C548.013 208.244 538.25 208.965 531.822 205.057C525.094 200.966 522.019 191.804 504.372 142.748C501.902 136.31 501.854 134.746 502.336 133.711C502.818 132.675 503.83 132.17 505.965 131.952C508.1 131.735 511.358 131.805 514.014 132.254C516.67 132.703 518.725 133.531 520.599 135.292C522.474 137.053 524.169 139.747 527.206 147.759C535.966 172.13 538.355 178.466 540.489 183.133C545.521 194.135 549.138 195.86 553.031 191.22L555.176 187.701C562.217 175.029 566.536 158.116 569.49 144.828C572.444 131.54 574.033 121.877 576.066 108.98C578.1 96.0831 580.577 79.9511 582.528 69.0192C584.479 58.0873 585.903 52.3556 588.203 49.4207C590.504 46.4857 593.682 46.3476 600.776 46.1813C607.87 46.0151 618.881 45.8207 612.742 53.4844C611.655 54.8421 610.029 56.4467 608.402 58.8696C600.847 70.1225 593.271 99.0299 586.136 123.334C577.465 152.871 569.447 175.608 562.103 190.322Z" fill="url(#paint7_linear_43_60)"/>
<path d="M907.711 193.585C910.601 195.687 910.917 201.378 908.278 203.787C906.176 206.677 900.485 206.993 898.076 204.354C895.186 202.252 894.87 196.561 897.509 194.152C899.611 191.262 905.302 190.946 907.711 193.585Z" fill="url(#paint8_linear_43_60)"/>
<path d="M96.8311 125.361C93.054 138.342 90.6886 147.964 89.2727 154.886C88.4873 160.187 88.4548 161.66 88.6672 162.48C88.9028 163.39 89.4396 163.499 90.2553 162.855C91.071 162.212 92.1656 160.816 94.4118 157.202C97.5087 151.933 102.504 143.805 109.384 138.184L110.489 137.315C112.404 135.873 113.491 135.423 114.394 135.071C117.451 133.878 118.396 133.81 119.245 133.781C124.046 133.614 125.785 134.673 127.423 135.852C129.736 137.515 131.847 139.417 134.883 144.003C137.81 148.424 141.598 155.34 156.403 200.901C157.469 204.531 156.777 205.421 153.808 205.89C150.839 206.359 145.592 206.409 142.245 206.244C138.898 206.079 137.451 205.701 136.011 203.753C134.571 201.805 133.139 198.287 132.056 194.402L126.006 172.452C122.843 161.177 120.952 155.599 119.378 151.559C117.803 147.518 116.544 145.016 115.036 143.84C113.527 142.665 111.769 142.817 109.905 144.263C108.429 145.408 106.887 147.364 103.734 151.764C98.5628 159.841 95.4448 166.349 92.3703 174.344C89.2958 182.34 86.2649 191.823 84.1954 197.498C82.126 203.173 81.0181 205.039 79.5603 205.972C78.1026 206.904 76.2949 206.904 75.0121 205.476C74.3938 204.787 73.8975 203.767 73.6982 201.087C73.5964 192.18 74.2368 183.092 74.9518 175.104C75.6668 167.116 76.4563 160.228 77.8715 151.449C79.2867 142.67 81.3276 131.999 83.8641 120.482C86.4006 108.966 89.4328 96.6039 93.1064 85.0293C96.7799 73.4546 101.095 62.667 104.71 55.3199C108.325 47.9727 111.241 44.0659 114.273 41.7626C117.305 39.4594 120.454 38.7597 122.902 40.163C125.35 41.5663 127.096 45.0727 126.304 50.2073C125.511 55.3418 122.178 62.1044 118.532 69.363C114.886 76.6215 110.927 84.3758 105.361 99.106C102.858 105.731 100.03 113.766 96.8311 125.361Z" fill="url(#paint9_linear_43_60)"/>
<path d="M664.018 173.723C664.717 175.391 665.094 178.995 664.448 182.6C663.803 186.204 662.135 189.808 659.66 193.171C657.186 196.533 653.904 199.653 650.515 201.778C647.126 203.903 643.629 205.033 639.487 205.732C635.344 206.432 630.556 206.701 625.446 206.163C620.335 205.625 614.901 204.28 610.167 201.778C605.433 199.277 601.399 195.619 598.063 191.584C594.728 187.549 592.092 183.138 590.666 178.188C589.241 173.239 589.025 167.752 589.752 162.318C590.478 156.885 592.145 151.505 594.997 147.094C597.848 142.683 601.883 139.24 606.348 136.577C610.813 133.914 615.708 132.031 621.68 131.063C627.651 130.094 634.699 130.04 640.347 131.143C645.996 132.246 650.246 134.506 653.77 137.384C657.293 140.262 660.091 143.759 661.516 147.255C662.942 150.752 662.996 154.249 662.189 157.235C661.382 160.22 659.714 162.695 656.675 164.901C653.635 167.106 649.224 169.043 645.028 170.361C640.831 171.679 636.851 172.378 633.085 173.132C629.319 173.885 625.768 174.692 622.729 175.633C619.689 176.574 617.161 177.65 615.224 178.753C613.288 179.856 611.943 180.986 611.109 182.546C610.275 184.106 609.952 186.097 610.598 188.356C611.243 190.615 612.857 193.144 615.117 195.215C617.376 197.286 620.281 198.9 623.267 199.976C626.253 201.052 629.319 201.59 631.955 201.375C634.591 201.16 636.797 200.191 638.411 198.631C640.025 197.071 641.047 194.919 641.773 192.66C642.499 190.4 642.929 188.033 643.36 185.586C643.79 183.138 644.221 180.609 645.942 178.673C647.664 176.736 650.676 175.391 653.447 174.476C656.217 173.562 658.746 173.078 660.521 172.701C662.296 172.325 663.318 172.056 664.018 173.723ZM609.696 167.793C608.987 170.484 608.377 172.743 608.659 173.534C608.94 174.326 610.113 173.649 612.524 172.703L622.552 169.175C626.519 167.805 630.804 166.28 634.4 164.588C637.997 162.896 640.905 161.038 642.673 158.837C644.441 156.635 645.069 154.091 645.094 151.685C645.119 149.278 644.543 147.009 643.676 145.135C642.808 143.261 641.65 141.781 640.159 140.724C638.668 139.667 636.846 139.032 634.431 138.871C632.017 138.709 629.012 139.02 625.915 140.518C622.819 142.016 619.631 144.701 617.301 147.956C614.97 151.21 613.497 155.035 612.356 158.508L609.696 167.793Z" fill="url(#paint10_linear_43_60)"/>
<path d="M1020.39 146.264C1023.07 132.581 1025.13 119.88 1026.31 112.095C1027.49 104.311 1027.79 101.442 1027.29 98.755C1026.78 96.068 1025.48 93.562 1026.16 91.6364C1026.83 89.7109 1029.48 88.3658 1032.23 87.2512C1034.98 86.1365 1037.84 85.2522 1039.07 86.3084C1040.3 87.3645 1039.92 90.361 1037.76 101.032C1035.61 111.702 1031.68 130.047 1028.41 147.224C1025.14 164.4 1022.54 180.409 1022.33 189.459C1022.13 198.51 1024.34 200.602 1022.97 202.312C1021.6 204.021 1016.66 205.348 1013.68 205.671C1010.69 205.993 1009.67 205.312 1009.2 204.168C1008.73 203.024 1008.81 201.418 1009.23 198.859L1012.4 183.699C1014.42 174.611 1017.71 159.946 1020.39 146.264Z" fill="url(#paint11_linear_43_60)"/>
<path d="M801.401 142.66C802.315 144.976 802.431 146.77 801.009 147.991C799.587 149.211 796.627 149.859 794.526 149.081C792.425 148.303 791.184 146.1 789.819 143.023C788.454 139.945 786.966 135.993 783.29 134.073C779.613 132.153 773.748 132.266 768.929 133.487C764.111 134.708 760.339 137.038 757.835 139.95C755.331 142.861 754.095 146.355 754.121 149.433C754.148 152.511 755.437 155.174 757.791 157.099C760.146 159.025 763.566 160.213 767.395 160.608C771.224 161.003 775.461 160.604 780.654 161.502C785.848 162.399 791.998 164.594 796.032 168.004C800.066 171.415 801.985 176.041 802.749 180.103C803.512 184.164 803.119 187.66 801.88 190.854C800.64 194.048 798.552 196.939 795.441 199.428C792.329 201.916 788.192 204.002 784.393 205.31C780.593 206.618 777.129 207.149 773.357 207.331C769.585 207.514 765.504 207.347 761.571 206.638C757.637 205.929 753.852 204.678 750.384 202.444C746.917 200.21 743.768 196.995 742.053 194.383C740.337 191.77 740.055 189.76 742.068 187.541C744.081 185.321 748.39 182.89 750.723 183.839C753.056 184.788 753.414 189.116 755.129 193.098C756.844 197.081 759.918 200.718 763.306 202.765C766.694 204.812 770.397 205.269 774.753 204.696C779.109 204.122 784.119 202.518 786.947 199.831C789.776 197.144 790.423 193.374 790.351 190.132C790.28 186.891 789.49 184.178 787.217 181.9C784.944 179.622 781.189 177.779 776.896 177.017C772.603 176.255 767.771 176.574 762.54 175.299C757.31 174.024 751.68 171.155 748.325 167.087C744.97 163.018 743.889 157.75 744.545 152.731C745.201 147.712 747.592 142.942 751.503 139.31C755.413 135.677 760.842 133.181 766.181 131.729C771.52 130.277 776.768 129.868 781.901 130.532C787.033 131.195 792.049 132.931 795.412 135.218C798.776 137.506 800.487 140.344 801.401 142.66Z" fill="url(#paint12_linear_43_60)"/>
<path d="M682.716 133.346C682.811 131.301 683.238 130.406 684.02 130.023C684.802 129.64 685.94 129.767 687.101 130.364C688.263 130.96 689.448 132.025 690.396 133.729C691.344 135.433 692.055 137.776 692.339 140.524C692.624 143.272 692.482 146.424 692.232 149.072L691.336 155.642C691.046 157.424 690.823 158.844 691.236 158.795C691.65 158.746 692.701 157.229 694.011 155.384C695.322 153.538 696.893 151.366 699.223 148.612C701.553 145.858 704.643 142.524 707.688 139.845C710.733 137.165 713.733 135.142 717.045 133.739C720.356 132.336 723.978 131.554 727.113 131.374C730.247 131.195 732.894 131.619 735.364 132.015C737.835 132.411 740.129 132.778 739.547 136.517C738.965 140.255 735.507 147.363 732.992 150.523C730.478 153.682 728.908 152.892 727.885 151.557C726.862 150.223 726.386 148.345 725.525 146.043C724.663 143.741 723.416 141.015 720.986 140.262C718.556 139.509 714.943 140.728 710.188 143.899C705.433 147.07 699.536 152.191 695.416 159.457C691.296 166.723 688.953 176.133 688.917 184.201C688.882 192.268 691.154 198.993 690.088 202.541C689.022 206.089 684.617 206.46 680.951 206.561C677.286 206.661 674.36 206.491 672.707 205.83C671.055 205.17 670.676 204.02 671.79 199.483C672.904 194.946 675.511 187.022 677.62 178.992C679.73 170.962 681.342 162.825 682.171 156.606C683.001 150.386 683.048 146.083 682.953 142.334L682.716 133.346Z" fill="url(#paint13_linear_43_60)"/>
<defs>
<linearGradient id="paint0_linear_43_60" x1="592.225" y1="119.659" x2="404.411" y2="214.388" gradientUnits="userSpaceOnUse">
<stop stop-color="#F19730"/>
<stop offset="1" stop-color="#14B375"/>
</linearGradient>
<linearGradient id="paint1_linear_43_60" x1="192.916" y1="203.572" x2="464.91" y2="170.364" gradientUnits="userSpaceOnUse">
<stop stop-color="#F48C2F"/>
<stop offset="1" stop-color="#E6BC32"/>
</linearGradient>
<linearGradient id="paint2_linear_43_60" x1="165.202" y1="203.572" x2="463.796" y2="163.94" gradientUnits="userSpaceOnUse">
<stop stop-color="#F48C2F"/>
<stop offset="1" stop-color="#E6BC32"/>
</linearGradient>
<linearGradient id="paint3_linear_43_60" x1="283.038" y1="256.131" x2="500.06" y2="142.036" gradientUnits="userSpaceOnUse">
<stop stop-color="#F48C2F"/>
<stop offset="1" stop-color="#E6BC32"/>
</linearGradient>
<linearGradient id="paint4_linear_43_60" x1="63.2434" y1="170.2" x2="437.25" y2="111.225" gradientUnits="userSpaceOnUse">
<stop stop-color="#F48C2F"/>
<stop offset="1" stop-color="#E6BC32"/>
</linearGradient>
<linearGradient id="paint5_linear_43_60" x1="790.119" y1="177.038" x2="999.742" y2="111.715" gradientUnits="userSpaceOnUse">
<stop stop-color="#4EAF00"/>
<stop offset="1" stop-color="#00B49C"/>
</linearGradient>
<linearGradient id="paint6_linear_43_60" x1="664.599" y1="165.092" x2="885.438" y2="118.731" gradientUnits="userSpaceOnUse">
<stop stop-color="#DEB82B"/>
<stop offset="1" stop-color="#4EAF00"/>
</linearGradient>
<linearGradient id="paint7_linear_43_60" x1="524.854" y1="158.799" x2="611.005" y2="92.4274" gradientUnits="userSpaceOnUse">
<stop stop-color="#DEB82B"/>
<stop offset="1" stop-color="#4EAF00"/>
</linearGradient>
<linearGradient id="paint8_linear_43_60" x1="868.281" y1="198.469" x2="910.003" y2="189.631" gradientUnits="userSpaceOnUse">
<stop stop-color="#DEB82B"/>
<stop offset="1" stop-color="#4EAF00"/>
</linearGradient>
<linearGradient id="paint9_linear_43_60" x1="69.2551" y1="123.03" x2="330.907" y2="94.9103" gradientUnits="userSpaceOnUse">
<stop stop-color="#F48C2F"/>
<stop offset="1" stop-color="#E6BC32"/>
</linearGradient>
<linearGradient id="paint10_linear_43_60" x1="510.611" y1="177.222" x2="660.839" y2="120.122" gradientUnits="userSpaceOnUse">
<stop stop-color="#DEB82B"/>
<stop offset="1" stop-color="#4EAF00"/>
</linearGradient>
<linearGradient id="paint11_linear_43_60" x1="958.968" y1="175.136" x2="1045.55" y2="165.288" gradientUnits="userSpaceOnUse">
<stop stop-color="#4EAF00"/>
<stop offset="1" stop-color="#00B49C"/>
</linearGradient>
<linearGradient id="paint12_linear_43_60" x1="621.462" y1="166.122" x2="805.523" y2="134.557" gradientUnits="userSpaceOnUse">
<stop stop-color="#DEB82B"/>
<stop offset="1" stop-color="#4EAF00"/>
</linearGradient>
<linearGradient id="paint13_linear_43_60" x1="540.499" y1="165.521" x2="741.026" y2="127.633" gradientUnits="userSpaceOnUse">
<stop stop-color="#DEB82B"/>
<stop offset="1" stop-color="#4EAF00"/>
</linearGradient>
</defs>
</svg>
