<svg width="80" height="80" viewBox="0 0 80 80" fill="none" xmlns="http://www.w3.org/2000/svg">
<path fill-rule="evenodd" clip-rule="evenodd" d="M40.0001 73.3337C58.4094 73.3337 73.3334 58.4097 73.3334 40.0003C73.3334 21.5908 58.4094 6.66699 40.0001 6.66699C21.5906 6.66699 6.66675 21.5908 6.66675 40.0003C6.66675 58.4097 21.5906 73.3337 40.0001 73.3337ZM42.5001 20.0003C42.5001 18.6196 41.3807 17.5003 40.0001 17.5003C38.6194 17.5003 37.5001 18.6196 37.5001 20.0003V21.0561C32.0653 22.0292 27.5001 26.1124 27.5001 31.667C27.5001 38.0577 33.5427 42.5003 40.0001 42.5003C44.5884 42.5003 47.5001 45.5193 47.5001 48.3337C47.5001 51.148 44.5884 54.167 40.0001 54.167C35.4117 54.167 32.5001 51.148 32.5001 48.3337C32.5001 46.953 31.3808 45.8337 30.0001 45.8337C28.6194 45.8337 27.5001 46.953 27.5001 48.3337C27.5001 53.8883 32.0653 57.9713 37.5001 58.9447V60.0003C37.5001 61.381 38.6194 62.5003 40.0001 62.5003C41.3807 62.5003 42.5001 61.381 42.5001 60.0003V58.9447C47.9347 57.9713 52.5001 53.8883 52.5001 48.3337C52.5001 41.943 46.4574 37.5003 40.0001 37.5003C35.4117 37.5003 32.5001 34.4813 32.5001 31.667C32.5001 28.8528 35.4117 25.8337 40.0001 25.8337C44.5884 25.8337 47.5001 28.8528 47.5001 31.667C47.5001 33.0477 48.6194 34.167 50.0001 34.167C51.3807 34.167 52.5001 33.0477 52.5001 31.667C52.5001 26.1124 47.9347 22.0292 42.5001 21.0561V20.0003Z" fill="url(#paint0_linear_75_828)"/>
<defs>
<linearGradient id="paint0_linear_75_828" x1="40.0001" y1="7.01693" x2="40.0001" y2="147.231" gradientUnits="userSpaceOnUse">
<stop stop-color="white"/>
<stop offset="1" stop-color="white" stop-opacity="0"/>
</linearGradient>
</defs>
</svg>
