<svg width="32" height="32" viewBox="0 0 32 32" fill="none" xmlns="http://www.w3.org/2000/svg">
<path fill-rule="evenodd" clip-rule="evenodd" d="M16.0001 29.3327C23.3638 29.3327 29.3334 23.3631 29.3334 15.9993C29.3334 8.63555 23.3638 2.66602 16.0001 2.66602C8.63628 2.66602 2.66675 8.63555 2.66675 15.9993C2.66675 23.3631 8.63628 29.3327 16.0001 29.3327ZM11.1967 20.7372C11.5256 20.2935 12.1519 20.2004 12.5956 20.5293C13.5667 21.2491 14.7389 21.666 16.0001 21.666C17.2613 21.666 18.4334 21.2491 19.4046 20.5293C19.8483 20.2004 20.4746 20.2935 20.8034 20.7372C21.1323 21.1809 21.0393 21.8072 20.5955 22.136C19.299 23.0971 17.7134 23.666 16.0001 23.666C14.2867 23.666 12.7011 23.0971 11.4046 22.136C10.9609 21.8072 10.8678 21.1809 11.1967 20.7372ZM21.3334 13.9993C21.3334 15.1039 20.7365 15.9993 20.0001 15.9993C19.2637 15.9993 18.6667 15.1039 18.6667 13.9993C18.6667 12.8948 19.2637 11.9993 20.0001 11.9993C20.7365 11.9993 21.3334 12.8948 21.3334 13.9993ZM12.0001 15.9993C12.7365 15.9993 13.3334 15.1039 13.3334 13.9993C13.3334 12.8948 12.7365 11.9993 12.0001 11.9993C11.2637 11.9993 10.6667 12.8948 10.6667 13.9993C10.6667 15.1039 11.2637 15.9993 12.0001 15.9993Z" fill="url(#paint0_linear_20_10536)"/>
<defs>
<linearGradient id="paint0_linear_20_10536" x1="16.0001" y1="2.80599" x2="16" y2="32.3745" gradientUnits="userSpaceOnUse">
<stop stop-color="#27AE60"/>
<stop offset="1" stop-color="#27AE60" stop-opacity="0"/>
</linearGradient>
</defs>
</svg>
