<svg width="32" height="32" viewBox="0 0 32 32" fill="none" xmlns="http://www.w3.org/2000/svg">
<path fill-rule="evenodd" clip-rule="evenodd" d="M25.9997 12.7467C26.0443 18.2693 21.442 23.3772 15.9193 23.3327C10.3966 23.2881 6.04489 18.108 6.00033 12.5853C5.95577 7.06265 10.3966 2.62179 15.9193 2.66635C21.442 2.71091 25.9551 7.22404 25.9997 12.7467ZM16.6748 6.99937C16.1225 6.99492 15.6712 7.43901 15.6667 7.99128C15.6623 8.54355 16.1063 8.99485 16.6585 8.99932C18.3041 9.01259 19.6535 10.3619 19.6667 12.0074C19.6712 12.5597 20.1225 13.0038 20.6748 12.9993C21.2271 12.9949 21.6711 12.5435 21.6667 11.9913C21.6445 9.25385 19.4121 7.02147 16.6748 6.99937Z" fill="url(#paint0_linear_20_10543)"/>
<path d="M18.8893 24.2852C19.3323 25.7016 18.4144 27.1275 17.0001 27.4148V29.3324C17.0001 29.8847 16.5524 30.3324 16.0001 30.3324C15.4479 30.3324 15.0001 29.8847 15.0001 29.3324V27.4148C13.5859 27.1275 12.6679 25.7016 13.1109 24.2852L13.1201 24.2567C14.0059 24.515 14.9391 24.6579 15.9087 24.6658C16.9367 24.674 17.9324 24.5291 18.8793 24.2539C18.8829 24.2644 18.8861 24.2748 18.8893 24.2852Z" fill="url(#paint1_linear_20_10543)"/>
<defs>
<linearGradient id="paint0_linear_20_10543" x1="16" y1="2.81124" x2="16" y2="42.6245" gradientUnits="userSpaceOnUse">
<stop stop-color="#27AE60"/>
<stop offset="1" stop-color="#27AE60" stop-opacity="0"/>
</linearGradient>
<linearGradient id="paint1_linear_20_10543" x1="16" y1="2.81124" x2="16" y2="42.6245" gradientUnits="userSpaceOnUse">
<stop stop-color="#27AE60"/>
<stop offset="1" stop-color="#27AE60" stop-opacity="0"/>
</linearGradient>
</defs>
</svg>
