<svg width="32" height="32" viewBox="0 0 32 32" fill="none" xmlns="http://www.w3.org/2000/svg">
<path d="M29.3334 13.6807C29.3334 10.5532 26.7411 8.0188 23.5384 8.0188C22.9255 8.0188 22.3446 8.13635 21.7938 8.30601C21.7786 5.18865 19.1952 2.66602 15.9993 2.66602C12.8055 2.66602 10.2184 5.18865 10.2064 8.30601C9.65571 8.13635 9.07472 8.0188 8.4618 8.0188C5.25914 8.0188 2.66675 10.5532 2.66675 13.6807C2.66675 16.1865 4.34232 18.285 6.65284 19.03C5.96045 19.964 5.54472 21.0989 5.54472 22.3369C5.54472 25.4644 8.13706 27.9993 11.3392 27.9993C13.259 27.9993 14.9445 27.0812 15.9994 25.6765C17.0558 27.0812 18.7413 27.9993 20.659 27.9993C23.8632 27.9993 26.454 25.4645 26.454 22.3369C26.454 21.0989 26.0377 19.964 25.3474 19.03C27.6578 18.285 29.3334 16.1865 29.3334 13.6807ZM15.9993 19.4766C14.3341 19.4766 12.9823 18.1578 12.9823 16.5309C12.9823 14.9034 14.3341 13.5847 15.9993 13.5847C17.666 13.5847 19.0163 14.9034 19.0163 16.5309C19.0163 18.1578 17.666 19.4766 15.9993 19.4766Z" fill="url(#paint0_linear_20_10541)"/>
<defs>
<linearGradient id="paint0_linear_20_10541" x1="16.0001" y1="2.79899" x2="16" y2="46.7495" gradientUnits="userSpaceOnUse">
<stop stop-color="#27AE60"/>
<stop offset="1" stop-color="#27AE60" stop-opacity="0"/>
</linearGradient>
</defs>
</svg>
