<svg width="32" height="32" viewBox="0 0 32 32" fill="none" xmlns="http://www.w3.org/2000/svg">
<path d="M17.1099 29.0687C21.2777 28.2333 26.6667 25.235 26.6667 17.4819C26.6667 10.4265 21.5023 5.72823 17.7887 3.56946C16.9647 3.09042 16 3.72041 16 4.67355V7.11152C16 9.034 15.1917 12.5431 12.9458 14.0027C11.7991 14.7479 10.5607 13.6326 10.4213 12.2722L10.3069 11.155C10.1739 9.85637 8.85121 9.06799 7.81328 9.85979C5.94863 11.2822 4 13.7731 4 17.4819C4 26.9634 11.0519 29.3338 14.5777 29.3338C14.7828 29.3338 14.9984 29.3277 15.2228 29.3147C13.4817 29.1659 10.6667 28.0857 10.6667 24.5926C10.6667 21.8602 12.6601 20.0117 14.1747 19.1131C14.582 18.8714 15.0588 19.1853 15.0588 19.6589V20.4445C15.0588 21.0457 15.2913 21.9855 15.8448 22.6289C16.4712 23.3569 17.3905 22.5942 17.4647 21.6367C17.4881 21.3347 17.7919 21.1422 18.0535 21.2951C18.9085 21.7949 20 22.8623 20 24.5926C20 27.3233 18.4947 28.5794 17.1099 29.0687Z" fill="url(#paint0_linear_20_10546)"/>
<defs>
<linearGradient id="paint0_linear_20_10546" x1="15.3333" y1="3.54137" x2="14.5832" y2="55.124" gradientUnits="userSpaceOnUse">
<stop stop-color="#27AE60"/>
<stop offset="1" stop-color="#27AE60" stop-opacity="0"/>
</linearGradient>
</defs>
</svg>
