<svg width="32" height="32" viewBox="0 0 32 32" fill="none" xmlns="http://www.w3.org/2000/svg">
<path fill-rule="evenodd" clip-rule="evenodd" d="M12.3334 5.33268C12.3334 3.30764 13.975 1.66602 16.0001 1.66602C18.0251 1.66602 19.6667 3.30764 19.6667 5.33268C19.6667 7.35772 18.0251 8.99935 16.0001 8.99935C13.975 8.99935 12.3334 7.35772 12.3334 5.33268Z" fill="url(#paint0_linear_20_10547)"/>
<path d="M10.9642 15.4315L8.0638 14.4647C7.2295 14.1866 6.66675 13.4058 6.66675 12.5264C6.66675 11.2256 7.86612 10.256 9.13801 10.5286L11.6681 11.0707C11.8088 11.1009 11.8791 11.1159 11.9489 11.1304C14.6214 11.6832 17.3787 11.6832 20.0513 11.1304C20.121 11.1159 20.1914 11.1009 20.3321 11.0707L22.8621 10.5286C24.1341 10.256 25.3334 11.2256 25.3334 12.5264C25.3334 13.4058 24.7706 14.1866 23.9363 14.4647L21.0359 15.4315C20.6854 15.5483 20.5102 15.6067 20.3783 15.6882C19.9295 15.9651 19.6862 16.4807 19.7577 17.0034C19.7787 17.1568 19.845 17.3292 19.9777 17.674L21.6401 21.9963C22.1349 23.2828 21.1851 24.6656 19.8066 24.6656C19.1018 24.6656 18.4509 24.288 18.1011 23.6759L16.0001 19.999L13.899 23.6759C13.5493 24.288 12.8984 24.6656 12.1935 24.6656C10.815 24.6656 9.86527 23.2828 10.3601 21.9963L12.0225 17.674C12.1551 17.3292 12.2215 17.1568 12.2424 17.0034C12.3139 16.4807 12.0706 15.9651 11.6217 15.6882C11.49 15.6067 11.3147 15.5483 10.9642 15.4315Z" fill="url(#paint1_linear_20_10547)"/>
<path d="M16.0001 29.3324C23.3638 29.3324 29.3334 26.6461 29.3334 23.3324C29.3334 21.0367 26.4679 19.042 22.2587 18.0332L23.5067 21.278C24.5054 23.8747 22.5887 26.6655 19.8066 26.6655C18.3841 26.6655 17.0705 25.9032 16.3647 24.668L16.0001 24.0299L15.6354 24.668C14.9297 25.9032 13.6161 26.6655 12.1935 26.6655C9.41143 26.6655 7.49473 23.8747 8.49343 21.278L9.74145 18.0332C5.53217 19.042 2.66675 21.0367 2.66675 23.3324C2.66675 26.6461 8.63628 29.3324 16.0001 29.3324Z" fill="url(#paint2_linear_20_10547)"/>
<defs>
<linearGradient id="paint0_linear_20_10547" x1="16.0001" y1="1.81124" x2="16.0001" y2="59.9994" gradientUnits="userSpaceOnUse">
<stop stop-color="#27AE60"/>
<stop offset="1" stop-color="#27AE60" stop-opacity="0"/>
</linearGradient>
<linearGradient id="paint1_linear_20_10547" x1="16.0001" y1="1.81124" x2="16.0001" y2="59.9994" gradientUnits="userSpaceOnUse">
<stop stop-color="#27AE60"/>
<stop offset="1" stop-color="#27AE60" stop-opacity="0"/>
</linearGradient>
<linearGradient id="paint2_linear_20_10547" x1="16.0001" y1="1.81124" x2="16.0001" y2="59.9994" gradientUnits="userSpaceOnUse">
<stop stop-color="#27AE60"/>
<stop offset="1" stop-color="#27AE60" stop-opacity="0"/>
</linearGradient>
</defs>
</svg>
