<svg width="32" height="32" viewBox="0 0 32 32" fill="none" xmlns="http://www.w3.org/2000/svg">
<path d="M7.55942 13.2195L11.6423 7.69544C14.2814 4.12469 15.601 2.33933 16.8322 2.71661C18.0632 3.0939 18.0632 5.28365 18.0632 9.66316V10.0761C18.0632 11.6557 18.0632 12.4455 18.568 12.9409L18.5947 12.9665C19.1103 13.4515 19.9323 13.4515 21.5763 13.4515C24.5348 13.4515 26.0142 13.4515 26.514 14.3487C26.5223 14.3635 26.5303 14.3786 26.5382 14.3937C27.0102 15.3049 26.1536 16.4637 24.4406 18.7813L20.3578 24.3053C17.7186 27.8759 16.399 29.6614 15.1678 29.2841C13.9367 28.9067 13.9367 26.717 13.9367 22.3374L13.9368 21.9247C13.9368 20.345 13.9368 19.5553 13.432 19.0598L13.4054 19.0342C12.8898 18.5493 12.0678 18.5493 10.4237 18.5493C7.46522 18.5493 5.98598 18.5493 5.48604 17.6519C5.47776 17.6371 5.46971 17.6222 5.4619 17.607C4.98996 16.6959 5.84644 15.5371 7.55942 13.2195Z" fill="url(#paint0_linear_20_10545)"/>
<defs>
<linearGradient id="paint0_linear_20_10545" x1="16.0001" y1="2.80697" x2="16" y2="29.3337" gradientUnits="userSpaceOnUse">
<stop stop-color="#27AE60"/>
<stop offset="1" stop-color="#27AE60" stop-opacity="0"/>
</linearGradient>
</defs>
</svg>
