<svg width="32" height="32" viewBox="0 0 32 32" fill="none" xmlns="http://www.w3.org/2000/svg">
<path fill-rule="evenodd" clip-rule="evenodd" d="M28.1346 10.6714C28.059 10.6666 27.9767 10.6666 27.8915 10.6667L24.5255 10.6667C21.7686 10.6667 19.4097 12.8368 19.4097 15.6667C19.4097 18.4965 21.7686 20.6667 24.5255 20.6667H27.8915C27.9767 20.6667 28.059 20.6668 28.1346 20.662C29.2545 20.5912 30.2447 19.7149 30.3281 18.4909C30.3335 18.4107 30.3334 18.3241 30.3334 18.244V13.0894C30.3334 13.0092 30.3335 12.9227 30.3281 12.8424C30.2447 11.6184 29.2545 10.7421 28.1346 10.6714ZM24.229 17C24.9387 17 25.5141 16.4031 25.5141 15.6667C25.5141 14.9303 24.9387 14.3333 24.229 14.3333C23.5193 14.3333 22.9438 14.9303 22.9438 15.6667C22.9438 16.4031 23.5193 17 24.229 17Z" fill="url(#paint0_linear_20_10549)"/>
<path fill-rule="evenodd" clip-rule="evenodd" d="M27.8906 22.6667C28.0894 22.6615 28.2399 22.8456 28.1859 23.0371C27.9183 23.9869 27.4934 24.7967 26.8118 25.4784C25.8139 26.4761 24.5486 26.9189 22.9854 27.1292C21.4665 27.3333 19.5257 27.3333 17.0753 27.3333H14.2582C11.8079 27.3333 9.867 27.3333 8.34806 27.1292C6.78483 26.9189 5.51956 26.4761 4.52174 25.4784C3.52392 24.4805 3.0811 23.2152 2.87094 21.652C2.66671 20.1331 2.66672 18.1923 2.66675 15.7419V15.5915C2.66672 13.1411 2.66671 11.2003 2.87094 9.68131C3.0811 8.11808 3.52392 6.85281 4.52174 5.85499C5.51956 4.85717 6.78483 4.41435 8.34806 4.20419C9.867 3.99996 11.8078 3.99997 14.2582 4H17.0753C19.5257 3.99997 21.4665 3.99996 22.9854 4.20419C24.5486 4.41435 25.8139 4.85717 26.8118 5.85499C27.4934 6.53669 27.9182 7.34632 28.1859 8.29624C28.2399 8.48767 28.0894 8.67183 27.8906 8.66667L24.5254 8.66668C20.7433 8.66668 17.4095 11.6545 17.4095 15.6667C17.4095 19.6788 20.7433 22.6667 24.5254 22.6667H27.8906ZM9.33342 20.6667C8.78114 20.6667 8.33342 20.2189 8.33342 19.6667V11.6667C8.33342 11.1144 8.78114 10.6667 9.33342 10.6667C9.88569 10.6667 10.3334 11.1144 10.3334 11.6667V19.6667C10.3334 20.2189 9.88569 20.6667 9.33342 20.6667Z" fill="url(#paint1_linear_20_10549)"/>
<defs>
<linearGradient id="paint0_linear_20_10549" x1="16.5001" y1="4.12248" x2="16.3334" y2="45.8333" gradientUnits="userSpaceOnUse">
<stop stop-color="#27AE60"/>
<stop offset="1" stop-color="#27AE60" stop-opacity="0"/>
</linearGradient>
<linearGradient id="paint1_linear_20_10549" x1="16.5001" y1="4.12248" x2="16.3334" y2="45.8333" gradientUnits="userSpaceOnUse">
<stop stop-color="#27AE60"/>
<stop offset="1" stop-color="#27AE60" stop-opacity="0"/>
</linearGradient>
</defs>
</svg>
